<svg width="1956" height="1956" viewBox="0 0 1956 1956" fill="none" xmlns="http://www.w3.org/2000/svg">
<g clip-path="url(#clip0)">
<g opacity="0.6" filter="url(#filter0_f)">
<path opacity="0.6" d="M975 20L984.526 796.229L1075.14 25.248L1003.47 798.221L1174.18 40.935L1022.11 802.182L1271.04 66.888L1040.23 808.07L1364.65 102.823L1057.64 815.819L1454 148.348L1074.14 825.345L1538.1 202.962L1089.55 836.544L1616.03 266.067L1103.71 849.292L1686.93 336.973L1116.46 863.451L1750.04 414.902L1127.66 878.865L1804.65 499L1137.18 895.365L1850.18 588.346L1144.93 912.77L1886.11 681.962L1150.82 930.89L1912.07 778.821L1154.78 949.526L1927.75 877.862L1156.77 968.474L1933 978L1156.77 987.526L1927.75 1078.14L1154.78 1006.47L1912.07 1177.18L1150.82 1025.11L1886.11 1274.04L1144.93 1043.23L1850.18 1367.65L1137.18 1060.64L1804.65 1457L1127.66 1077.14L1750.04 1541.1L1116.46 1092.55L1686.93 1619.03L1103.71 1106.71L1616.03 1689.93L1089.55 1119.46L1538.1 1753.04L1074.14 1130.66L1454 1807.65L1057.64 1140.18L1364.65 1853.18L1040.23 1147.93L1271.04 1889.11L1022.11 1153.82L1174.18 1915.07L1003.47 1157.78L1075.14 1930.75L984.526 1159.77L975 1936L965.474 1159.77L874.862 1930.75L946.526 1157.78L775.821 1915.07L927.89 1153.82L678.962 1889.11L909.77 1147.93L585.346 1853.18L892.365 1140.18L496 1807.65L875.865 1130.66L411.902 1753.04L860.451 1119.46L333.973 1689.93L846.292 1106.71L263.067 1619.03L833.544 1092.55L199.962 1541.1L822.345 1077.14L145.348 1457L812.819 1060.64L99.823 1367.65L805.07 1043.23L63.888 1274.04L799.182 1025.11L37.935 1177.18L795.221 1006.47L22.248 1078.14L793.229 987.526L17 978L793.229 968.474L22.248 877.862L795.221 949.526L37.935 778.821L799.182 930.89L63.888 681.962L805.07 912.77L99.823 588.346L812.819 895.365L145.348 499L822.345 878.865L199.962 414.902L833.544 863.451L263.067 336.973L846.292 849.292L333.973 266.067L860.451 836.544L411.902 202.962L875.865 825.345L496 148.348L892.365 815.819L585.346 102.823L909.77 808.07L678.962 66.888L927.89 802.182L775.821 40.935L946.526 798.221L874.862 25.248L965.474 796.229L975 20Z" fill="url(#paint0_radial)" fill-opacity="0.2"/>
</g>
</g>
<defs>
<filter id="filter0_f" x="-3" y="0" width="1956" height="1956" filterUnits="userSpaceOnUse" color-interpolation-filters="sRGB">
<feFlood flood-opacity="0" result="BackgroundImageFix"/>
<feBlend mode="normal" in="SourceGraphic" in2="BackgroundImageFix" result="shape"/>
<feGaussianBlur stdDeviation="10" result="effect1_foregroundBlur"/>
</filter>
<radialGradient id="paint0_radial" cx="0" cy="0" r="1" gradientUnits="userSpaceOnUse" gradientTransform="translate(975 978) rotate(90) scale(958)">
<stop offset="0.115" stop-color="white" stop-opacity="0"/>
<stop offset="0.375" stop-color="white"/>
<stop offset="1" stop-color="white" stop-opacity="0"/>
</radialGradient>
<clipPath id="clip0">
<rect width="1956" height="1956" fill="white"/>
</clipPath>
</defs>
</svg>
