<svg width="296" height="121" viewBox="0 0 296 121" fill="none" xmlns="http://www.w3.org/2000/svg">
<g clip-path="url(#clip0)">
<g filter="url(#filter0_dd)">
<path d="M4 16C4 7.16344 11.1634 0 20 0H66V113H20C11.1634 113 4 105.837 4 97V16Z" fill="#FF9511"/>
<path fill-rule="evenodd" clip-rule="evenodd" d="M69.4931 2.94568C68.9511 1.38001 67.6569 0 66 0V10H90V0C88.3431 0 87.0489 1.38001 86.5069 2.94568C85.2868 6.4696 81.9389 9 78 9C74.0611 9 70.7132 6.4696 69.4931 2.94568Z" fill="#FF9511"/>
<path d="M76 10H66V103H76V10Z" fill="#FF9511"/>
<path d="M78 103V10V103Z" fill="black"/>
<path d="M78 103V10" stroke="#FF5701" stroke-width="4" stroke-dasharray="4 4"/>
<path d="M90 10H80V103H90V10Z" fill="#FF9511"/>
<path fill-rule="evenodd" clip-rule="evenodd" d="M69.4931 110.054C68.9511 111.62 67.6569 113 66 113V103H90V113C88.3431 113 87.0489 111.62 86.5069 110.054C85.2868 106.53 81.9389 104 78 104C74.0611 104 70.7132 106.53 69.4931 110.054Z" fill="#FF9511"/>
<path d="M90 0H276C284.837 0 292 7.16344 292 16V97C292 105.837 284.837 113 276 113H90V0Z" fill="#FF9511"/>
</g>
</g>
<defs>
<filter id="filter0_dd" x="0" y="-2" width="298" height="123" filterUnits="userSpaceOnUse" color-interpolation-filters="sRGB">
<feFlood flood-opacity="0" result="BackgroundImageFix"/>
<feColorMatrix in="SourceAlpha" type="matrix" values="0 0 0 0 0 0 0 0 0 0 0 0 0 0 0 0 0 0 127 0" result="hardAlpha"/>
<feOffset dx="2" dy="2"/>
<feGaussianBlur stdDeviation="2"/>
<feColorMatrix type="matrix" values="0 0 0 0 1 0 0 0 0 0.584314 0 0 0 0 0.0666667 0 0 0 1 0"/>
<feBlend mode="normal" in2="BackgroundImageFix" result="effect1_dropShadow"/>
<feColorMatrix in="SourceAlpha" type="matrix" values="0 0 0 0 0 0 0 0 0 0 0 0 0 0 0 0 0 0 127 0" result="hardAlpha"/>
<feOffset dy="4"/>
<feGaussianBlur stdDeviation="2"/>
<feColorMatrix type="matrix" values="0 0 0 0 0 0 0 0 0 0 0 0 0 0 0 0 0 0 0.25 0"/>
<feBlend mode="normal" in2="effect1_dropShadow" result="effect2_dropShadow"/>
<feBlend mode="normal" in="SourceGraphic" in2="effect2_dropShadow" result="shape"/>
</filter>
<clipPath id="clip0">
<rect width="296" height="121" fill="white"/>
</clipPath>
</defs>
</svg>
